/* XPM */
static char *_648831258995[] = {
/* columns rows colors chars-per-pixel */
"64 64 52 1 ",
"  c #252525",
". c gray15",
"X c #272727",
"o c #282828",
"O c gray16",
"+ c #2A2A2A",
"@ c gray17",
"# c #2B2C2D",
"$ c #2C2C2C",
"% c #2D2D2D",
"& c gray18",
"* c #2F2F2F",
"= c gray19",
"- c #313131",
"; c #323232",
": c gray20",
"> c #313435",
", c #373C3D",
"< c #3C4141",
"1 c #3D4242",
"2 c #3E4445",
"3 c #444C4D",
"4 c #454D4E",
"5 c #4A5455",
"6 c #576465",
"7 c #5D6C6D",
"8 c #637475",
"9 c #697C7D",
"0 c #708485",
"q c #768C8D",
"w c #7C9495",
"e c #829C9D",
"r c #89A4A6",
"t c #8AA5A7",
"y c #8BA7A9",
"u c #8DA9AB",
"i c #8EABAD",
"p c #90ACAE",
"a c #91AEB0",
"s c #92AFB2",
"d c #93B0B2",
"f c #94B2B4",
"g c #95B3B5",
"h c #97B5B7",
"j c #99B8BB",
"k c #9AB9BB",
"l c #9BBABC",
"z c #9EBEC0",
"x c #A0C0C1",
"c c #A0C0C2",
"v c #A0C1C2",
"b c None",
/* pixels */
"bbbbbbbbbbbbbbbbbbbbbbbbxcccccccccccccccbbbbbbbbbbbbbbbbbbbbbbbb",
"bbbbbbbbbbbbbbbbbbbcxcccxxccczccccczccccccccbbbbbbbbbbbbbbbbbbbb",
"bbbbbbbbbbbbbbbbbxczczclfdffdiiiiiiiifffhzcccccbbbbbbbbbbbbbbbbb",
"bbbbbbbbbbbbbbbxccclfirryrryrrrryrrrrrryryyslccccbbbbbbbbbbbbbbb",
"bbbbbbbbbbbbbxxclarrrrrrrrrrrrrrrrrrrrrrrrrrryszcccbbbbbbbbbbbbb",
"bbbbbbbbbbbbxxlarrrrrrrrrrrrrrrrrrrrrrrrrrrrrrrrdzcxbbbbbbbbbbbb",
"bbbbbbbbbbcczirrrrrrrrrrrrrrrrrrrrrrrrrrrrrrrrrryydccbbbbbbbbbbb",
"bbbbbbbbbxczprrrrrrrrrrrrrrrrrrrrrrrrrrrrrrrrrrrrrrdccbbbbbbbbbb",
"bbbbbbbbxchurrrrrrrrrrrrrrrrrrrrrrrrrrrrrrrrrrrrrrrrizcxbbbbbbbb",
"bbbbbbbcchrrrrrrrrrrrrryrrrrrrrrrrrrrrrrrrrrrrrrrrrrrylzcbbbbbbb",
"bbbbbbxchrrrrrrrrrrrrrrq75222       2669errrrrrrrrrrrrrhccbbbbbb",
"bbbbbbxhyrrrrrrrrrrrw5@                  ,8errrrrrrrrrrrhcbbbbbb",
"bbbbbxhrrrrrrrrrrre3    X+$$%*******$oo    $6errrrrrrrrrrhxbbbbb",
"bbbbclrrrrrrrrrrr8   @%-::::::::::::::::=$  X:qrrrrrrrrrrylzbbbb",
"bbbbzyrrrrrrrrrr5  $-::::::::::::::::::::::*X  7rrrrrrrrrryzbbbb",
"bbbxprrrrrrrrrr5 X=::::::::::::::::::::::::::*  6rrrrrrrrrraxbbb",
"bbblrrrrrrrrrr5 +-::::::::::::::::::::::::::::-X 8rrrrrrrrrrlbbb",
"bbzyrrrrrrrrr7 +::::::::::::::::::::::::::::::::+ 0rrrrrrrrryzbb",
"bbhrrrrrrrrrw +::::::::::::::::::::::::::::::::::X@errrrrrrryhbb",
"bcyyrrrrrrrr2o:::::::::::::::::::::::::::::::::::-X2rrrrrrrrrycb",
"bjrrrrrrrrr0 -::::::::::::::::::::::::::::::::::::= 0rrrrrrrrrhb",
"barrrrrrrrr2%::::::::::::::::::::::::::::::::::::::$3rrrrrrrrrab",
"brrrrrrrrre :::::::::::::::::::::::::::::::::::::::- wrrrrrrrryb",
"lrrrrrrrrr8%::::::::::::::::::::::::::::::::::::::::%7rrrrrrrrrl",
"arrrrrrrrr3:::::::::::::::::::::::::::::::::::::::::-5rrrrrrrrra",
"arrrrrrrrr1::::::::::::::::::::::::::::::::::::::::::1rrrrrrrrra",
"irrrrrrrrr%::::::::::::::::::::::::::::::::::::::::::$rrrrrrrrri",
"yrrrrrrrrr*::::::::::::::::::::::::::::::::::::::::::*rrrrrrrrry",
"rrrrrrrrrr:::::::::::::::::::::::::::::::::::::::::::-rrrrrrrrrr",
"rrrrrrrrrr::::::::::::::::::::::::::::::::::::::::::::rrrrrrrrrr",
"rrrrrrrrrr::::::::::::::::::::::::::::::::::::::::::::rrrrrrrrrr",
"rrrrrrrrrr::::::::::::::::::::::::::::::::::::::::::::rrrrrrrrrr",
"rrrrrrrrrr::::::::::::::::::::::::::::::::::::::::::::rrrrrrrrrr",
"rrrrrrrrrr::::::::::::::::::::::::::::::::::::::::::::rrrrrrrrrr",
"rrrrrrrrrr::::::::::::::::::::::::::::::::::::::::::::rrrrrrrrrr",
"rrrrrrrrrr::::::::::::::::::::::::::::::::::::::::::::rrrrrrrrrr",
"rrrrrrrrrr::::::::::::::::::::::::::::::::::::::::::::rrrrrrrrrr",
"rrrrrrrrrr::::::::::::::::::::::::::::::::::::::::::::rrrrrrrrrr",
"rrrrrrrrrr::::::::::::::::::::::::::::::::::::::::::::rrrrrrrrrr",
"rrrrrrrrrr::::::::::::::::::::::::::::::::::::::::::::rrrrrrrrrr",
"rrrrrrrrrr::::::::::::::::::::::::::::::::::::::::::::rrrrrrrrrr",
"rrrrrrrrrr::::::::::::::::::::::::::::::::::::::::::::rrrrrrrrrr",
"rrrrrrrrrr::::::::::::::::::::::::::::::::::::::::::::rrrrrrrrrr",
"rrrrrrrrrr::::::::::::::::::::::::::::::::::::::::::::rrrrrrrrrr",
"rrrrrrrrrr::::::::::::::::::::::::::::::::::::::::::::rrrrrrrrrr",
"rrrrrrrrrr::::::::::::::::::::::::::::::::::::::::::::rrrrrrrrrr",
"rrrrrrrrrr::::::::::::::::::::::::::::::::::::::::::::rrrrrrrrrr",
"rrrrrrrrrr::::::::::::::::::::::::::::::::::::::::::::rrrrrrrrrr",
"rrrrrrrrrr::::::::::::::::::::::::::::::::::::::::::::rrrrrrrrrr",
"rrrrrrrrrr::::::::::::::::::::::::::::::::::::::::::::rrrrrrrrrr",
"rrrrrrrrrr::::::::::::::::::::::::::::::::::::::::::::rrrrrrrrrr",
"rrrrrrrrrr::::::::::::::::::::::::::::::::::::::::::::rrrrrrrrrr",
"rrrrrrrrrr::::::::::::::::::::::::::::::::::::::::::::rrrrrrrrrr",
"rrrrrrrrrr::::::::::::::::::::::::::::::::::::::::::::rrrrrrrrrr",
"rrrrrrrrrr::::::::::::::::::::::::::::::::::::::::::::rrrrrrrrrr",
"rrrrrrrrrr::::::::::::::::::::::::::::::::::::::::::::rrrrrrrrrr",
"rrrrrrrrrr::::::::::::::::::::::::::::::::::::::::::::rrrrrrrrrr",
"rrrrrrrrrr::::::::::::::::::::::::::::::::::::::::::::rrrrrrrrrr",
"rrrrrrrrrr::::::::::::::::::::::::::::::::::::::::::::rrrrrrrrrr",
"rrrrrrrrrr::::::::::::::::::::::::::::::::::::::::::::rrrrrrrrrr",
"rrrrrrrrrr::::::::::::::::::::::::::::::::::::::::::::rrrrrrrrrr",
"rrrrrrrrrr::::::::::::::::::::::::::::::::::::::::::::rrrrrrrrrr",
"rrrrrrrrrr::::::::::::::::::::::::::::::::::::::::::::rrrrrrrrrr",
"rrrrrrrrrr::::::::::::::::::::::::::::::::::::::::::::rrrrrrrrrr"
};
