/* XPM */
static char *_649430938422[] = {
/* columns rows colors chars-per-pixel */
"64 64 26 1 ",
"  c #AD763E",
". c #AE773E",
"X c #AF773F",
"o c #B0783F",
"O c #B1793F",
"+ c #B27940",
"@ c #B37A40",
"# c #B47B41",
"$ c #B57C41",
"% c #B67C42",
"& c #B77D42",
"* c #B87E42",
"= c #B97E43",
"- c #BA7F43",
"; c #BB8044",
": c #BC8044",
"> c #BC8144",
", c #BD8144",
"< c #BE8245",
"1 c #BF8345",
"2 c #C08345",
"3 c #C18446",
"4 c #C28446",
"5 c #C28546",
"6 c #C38546",
"7 c #C48647",
/* pixels */
";;;;;;;;;;;;;;;;;;;;;;;;;;;;;;;;;;;;;;$.        $;;;;;;;;;;;;;;;",
";;;;;;;;;;;;;;;;;;;;;;;;;;;;;;;;;;;;;;#.        &;;;;;;;;;;;;;;;",
";;;;==@.&;;;;;;;=;==;;;;;;;;;;;;;;;;;;#.        ;;;;;;;;;;;;;;;;",
";;;=@ . @=;;;;;;1=14;;;;;;;;;;;;;;;;;=@.        ;;;;;;;;;;;;;;;;",
";;;...  +$;;;;;;1=775=;;;;;;;;;;;;;;;;@    +   +;;;;;;;;;;;;;;;;",
";;;$ .   @;;;;;;-47775;>;;;;;;;;;;;;;;;=;$$#@++@;;;;;;;;;;;;;;;;",
";;;;..    =;;;;;5777775>;;;;;;;;;;;;;;;;;;;;=;;;;;;;;;;;;;;;;;;;",
";;;;@. .@&;;;;;377777775;;;;;;;;;;;;;;;;;;;;;;;;;;;;;;;;;;;;;;;;",
";;;;;@&;;;;;;;377777777751;;;;;;;;;;;;;;;;;;;;;;;;;;;;;;;;;;;;;;",
";;;;;;=;;;;;;1777777777755;;;;;;;;;;;;;;;;;;;;;;;;;;;;;;;;;;;;;;",
";;;;;;;;;;;;;1777777777751;;;;;;;;;;;;;;;;;;;;;;;;;;;;;;;;;;;;;;",
";;;;;;;;;;;;;=17777777771;;;;;;;;;;;;;;;;;;;;;;;;;;;;;;;;;;;;;;;",
";;;;;;;;;;;;;;;177777751;;;;;;;;;;;;;;;;;;;;;;;;;;;;;;;;;;;;;;;;",
";;;;;;;;;;;;;;1=>577751;;;;;;;;;;;;;;;;;;;;;;;;;;;;;;;;;;;;;;;;;",
";;;;;;;;;;;;;;=;;;7771;;;;;;;;;;;;;;;;;;;;;;;;;;;;;;;;;;;;;;;;;;",
";;;;;;;;;;;;;;;;;;151;;;;;;;;;;;;;;;;;;;;;;;;;;;;;;;;;;;;;;;;;;;",
";;;;;;;;;;;;;;;;;;;;;;;;;;;;;;;;;;;;;;;;;;;;;;;;;;;;;;;;;;;;;;;;",
";;;;;;;;;;;;;;;;;;;;;;;;;;;;;;;;;;;;;;;;;;;;;;;;;;;;;;;;;;;;;;;;",
";;;;;;;;;;;;;;;;;;;;;;;;;;;;;;;;;;;;;;;;;;;;;;;;;;;;;;;;;;;;;;;;",
";;;;;;;;;;#+;;;;;;;;;;;;;;;;;;;;;;;;;;;;;;;;;;;;;;;;;;;;;;;;;;;;",
";;;;;;;;;;+   ++;;;;;;;;;;;;;;;;;;;;;;;;;;;;;;;;;&@=;;;;;;;;;;;;",
";;;;;;;;;;++      +##;;;;;;;;;;;;;;;;;;;;;;;;;;;$+ +;;;;;;;;;;;;",
";;;;;;;;;&          +;;;;;;;;;;;;;;;;;;;;;;;;;;$+   +&;;;;;;;;;;",
";;;;;;;;;+          #;;;;;;;;;;;;;;;;;;;;;;;;;;+      ;;;;;;;;;;",
";;;;;;;;;@++        ;;;;;;;;;;;;;;;;;;;;;;;;;;=.     @;;;;;;;;;;",
";;;;;;;;;+          ;;;;;;;;;;;;;;;;;;;;;;;;;;;&    +;;;;;;;;;;;",
";;;;;;;;#          o;;;;;;;;;;;;;;;;;;;;;;;;;;;;$+.+$;;;;;;;;;;;",
";;;;;;;;#          #;;;;;;;;;;;;;;;;;;;;;;;;;;;;==@;;;;;;;;;;;;;",
";;;;;;;;@+         ;;;;;;;;;;;;;;1;;;;;;;;;;;;;;;;;;;;;;;;;;;;;;",
";;;;;;;;#+++   +  o;;;;;;;;;;;#o.$;;;;;;;;;;;;;;;;;;;;;;;;;;;;;;",
";;;;;;;;=;;;@@++  #;;;;;;;;O     @;;;;;;;;;;;;;;;;;;;;;;;;;;;;;;",
";;;;;;;;;;;;&;;&#O#;;;;;;O       +;;;;;;;;;;;;;;;;;;;;;;;;;;;;;;",
";;;;;;;;;;;;;;;;;;;;;;;;;;        =;;;;;;;;;;;;;;;;;;;;;;;;;;;;;",
";;;;;;;;;;;;;;;;;;;;;;;;;;        @;;;;;;;;;;;;;;;;;;;;;;;;;;;;;",
"##;;;;;;;;;;;;;;;;;;;;;;;;#+      +;;;;;;;;;;;;;;;;;;;;;;;;;=#&&",
"  ;;;;;;;;;;;;;;;;;;;;;;;;$        $;;;;;;;;;;;;;;;;;;;;;;;;&  +",
"  #;;;;;;;;;;;;;;;;;;;;;;;;o   + @$;;;;;;;;;;;;;;;;;;;;;;;;;=   ",
"  #;;;;;;;;;;;;;;;;;;;;;;;;#++ +=;;;;;;;;;;;;;;;;;;;;;;;;;;;;+  ",
"  #;;;;;;;;;;;;;;;;;;;;;;;;;#&;;;;;;;;;;;;;;;;;;;;;;;;;;;;;;=   ",
" oO;;;;;;;;;;;;;;;;;;;;;;;;;;;;;;;;;;;;;;;;;;;;;;;;;;;;;;;;;;.  ",
";;;;;;;;;;;;;;;;;;;;;;;;;;;;;;;;;;;;;;;;;;;;=;;;;;;;;;;;;;;;;&&&",
";;;;;;;;;;;;;;;;;;;;;;;;;;;;;;;;;;;;;;;;;;;;1=;;;;;;;;;;;;;;;;;;",
";;;;;;;;;;;;;;;;;;;;;;;;;;;;;;;;;;;;;;;;;;;;1=;;111;;;;;;;;;;;;;",
";;;;;;;;;;;;;;;;;;;;;;;;;;;;;;;;;;;;;;;;;;;;=157733;;;;;;;;;;;;;",
";;;;;;;;;;;;;;;;;;;;;;;;;;;;;;;;;;;;;;;;;;=577777731;;;;;;;;;;;;",
";;;;;;;;;;;;;;;;;;;;;;;;;;;;;;;;;;;;;;;;;;1577777751;;;;;;;;;;;;",
";;;;;;;;;;;;;;;;;;;# o##&;;;;;;;;;;;;;;;;;;177777734;;;;;;;;;;;;",
";;;;;;;;;;;;;;;;;;;@     +@&&;;;;;;;;;;;;;;;77777775;;;;;;;;;;;;",
";;;;;;;;;;;;;;;;;;;o         @;;;;;;;;;;;;;;77777777;;;;;;;;;;;;",
";;;;;;;;;;;;;;;;;;;         +$;;;;;;;;;;;;;;37777734;;;==$;;;;;;",
";;;;;;;;;;;;;;;;;;$          ;;;;;;;;;;;;;;;1337311=;;=..   +;;;",
";;;;;;;;;;;;;;;;;;#         +;;;;;;;;;;;;;;;131;=;;;;;; .   @;;;",
";;;;;;;;;;;;;;;;;;+         @;;;;;;;;;;;;;;;;;;;1=;;;;;+    @;;;",
";;;;;;;;;;;;;;;;;;          $;;;;;;;;;;;;;;;;;;;;;;;;;&     &;;;",
";;;;;;;;;;;;;;;;;$          ;;;;;;;;;;;;;;;;;;;;;;;;;;&+  + &;;;",
";;;;;;;;;;;;;;;;;#         .;;;;;;;;;;;;;;;;;;;;;;;;;;=&$@##;;;;",
";==11511;;;;;;;;;;;;#@+   +@;;;;;;;;;;;;;;;;;;;;;;;;;;;;;;;;;;;;",
";1773731;;;;;;;;;;;;;;;;$@o$;;;;;;;;;;;;;;;;;;;;;;;;;;;;;;;;;;;;",
";;777771;;;;;;;;;;;;;;;;;;;;;;;;;;;;;;;;;;;;;;;;;;;;;;;;;;;;;;;;",
";;377755;;;;;;;;;;;;;;;;;;;;;;;;;;;;;;;@+@##$;;;;;;;;;;;;;;;;;;;",
";;177775;;;;;;;;;;;;;;;;;;;;;;;;;;;;;;;+       +@;;;;;;;;;;;;;;;",
";;175555;;;;;;;;;;;;;;;;;;;;;;;;;;;;;;&         +;;;;;;;;;;;;;;;",
";;;1;;;;;;;;;;;;;;;;;;;;;;;;;;;;;;;;;;;+        @;;;;;;;;;;;;;;;",
";;;=;;;;;;;;;;;;;;;;;;;;;;;;;;;;;;;;;;#         #;;;;;;;;;;;;;;;"
};
