/* XPM */
static char *_649431062013[] = {
/* columns rows colors chars-per-pixel */
"64 64 101 2 ",
"   c #374013",
".  c #3A4315",
"X  c #414B19",
"o  c #46501B",
"O  c #49551D",
"+  c #4D581F",
"@  c #525E22",
"#  c #596526",
"$  c #5C6927",
"%  c #5E6C29",
"&  c #606E2A",
"*  c #64722C",
"=  c #69772F",
"-  c #6A792F",
";  c #6F7F32",
":  c #66645F",
">  c #6B665E",
",  c #7C6357",
"<  c #7C6E56",
"1  c #73635A",
"2  c #796258",
"3  c #786C58",
"4  c #626262",
"5  c #B6643E",
"6  c #BC653B",
"7  c #DE662D",
"8  c #C86537",
"9  c #C36538",
"0  c #EC6727",
"q  c #F56723",
"w  c #8C634F",
"e  c #92634D",
"r  c #99644A",
"t  c #8B754F",
"y  c #93794B",
"u  c #997C49",
"i  c #856353",
"p  c #857252",
"a  c #897450",
"s  c #A76444",
"d  c #AB6442",
"f  c #B26440",
"g  c #A17F45",
"h  c #748435",
"j  c #788837",
"k  c #7A8B38",
"l  c #82933C",
"z  c #AE853F",
"x  c #B2873D",
"c  c #B6893B",
"v  c #BA8B39",
"b  c #EA9516",
"n  c #EE9916",
"m  c #F29D17",
"M  c #F39E18",
"N  c #F6A117",
"B  c #F8A417",
"V  c #F6A319",
"C  c #FAA519",
"Z  c #F6AC1F",
"A  c #FFAB1A",
"S  c #D3962E",
"D  c #D7982C",
"F  c #DA992B",
"G  c #C38F36",
"H  c #C79134",
"J  c #CE9430",
"K  c #E69F25",
"L  c #E09C28",
"P  c #DAB02E",
"I  c #C8B239",
"U  c #CDB83C",
"Y  c #C2B33C",
"T  c #D2B133",
"R  c #D9B534",
"E  c #E7A025",
"W  c #EBA223",
"Q  c #E3AF2A",
"!  c #F2A520",
"~  c #F2AE23",
"^  c #E5B22C",
"/  c #8A9C41",
"(  c #A48143",
")  c #A88341",
"_  c #8FA244",
"`  c #91A445",
"'  c #95A847",
"]  c #96AA48",
"[  c #9AAE4A",
"{  c #9DB24C",
"}  c #A3B74E",
"|  c #A4B94F",
" . c #B1B546",
".. c #B8B542",
"X. c #BFBC46",
"o. c #B5BB49",
"O. c #B9BE4B",
"+. c #A6BA50",
"@. c #A8BE52",
"#. c #ACC254",
"$. c None",
/* pixels */
"$.$.$.$.$.$.$.$.$.$.$.$.$.$.$.$.$.$.$.$.$.$.$.$.$.$.$.$.$.$.$.$.$.$.$.$.$.$.$.$.$.$.$.$.$.$.$.$.$.$.$.$.$.$.$.$.$.$.$.$.$.$.$.$.",
"$.$.$.$.$.$.$.$.$.$.$.$.$.$.$.$.$.$.$.$.$.$.$.$.$.$.$.$.$.$.$.$.$.$.$.$.$.$.$.$.$.$.$.$.$.$.$.$.$.$.$.$.$.$.$.$.$.$.$.$.$.$.$.$.",
"$.$.$.$.$.$.$.$.$.$.$.$.$.$.$.$.$.$.$.$.$.$.$.$.$.$.$.$.$.$.$.$.$.$.$.$.$.$.$.$.$.$.$.$.$.$.$.$.$.$.$.$.$.$.$.$.$.$.$.$.$.$.$.$.",
"$.$.$.$.$.$.$.$.$.$.$.$.$.$.$.$.$.$.$.$.$.$.$.$.$.$.$.$.$.$.$.$.$.$.$.$.$.$.$.$.$.$.$.$.$.$.$.$.$.$.$.$.$.$.$.$.$.$.$.$.$.$.$.$.",
"$.$.$.$.$.$.$.$.$.$.$.$.$.$.$.$.$.$.$.$.$.$.$.$.$.$.$.$.$.$.$.$.$.$.$.$.$.$.$.$.$.$.$.$.$.$.$.$.$.$.$.$.$.$.$.$.$.$.$.$.$.$.$.$.",
"$.$.$.$.$.$.$.$.$.$.$.$.$.$.$.$.$.$.$.$.$.$.$.$.$.$.$.$.$.$.$.$.$.$.$.$.$.$.$.$.$.$.$.$.$.$.$.$.$.$.$.$.$.$.$.$.$.$.$.$.$.$.$.$.",
"$.$.$.$.$.$.$.$.$.$.$.$.$.$.$.$.$.$.$.$.$.$.$.$.$.$.$.$.$.$.$.$.$.$.$.$.$.$.$.$.$.$.$.$.$.$.$.$.$.$.$.$.$.$.$.$.$.$.$.$.$.$.$.$.",
"$.$.$.$.$.$.$.$.$.$.$.$.$.$.$.$.$.$.$.$.$.$.$.$.$.$.$.$.$.$.$.$.$.$.$.$.$.$.$.$.$.$.$.$.$.$.$.$.$.$.$.$.$.$.$.$.$.$.$.$.$.$.$.$.",
"$.$.$.$.$.$.$.$.$.$.$.$.$.$.$.$.$.$.$.$.$.$.$.$.$.$.$.$.$.$.$.$.$.$.$.$.$.$.$.$.$.$.$.$.$.$.$.$.$.$.$.$.$.$.$.$.$.$.$.$.$.$.$.$.",
"$.$.$.$.$.$.$.$.$.$.$.$.$.$.$.$.$.$.$.$.$.$.$.$.$.$.$.$.$.$.$.$.$.$.$.$.$.$.$.$.$.$.$.$.$.$.$.$.$.$.$.$.$.$.$.$.$.$.$.$.$.$.$.$.",
"$.$.$.$.$.$.$.$.$.$.$.$.$.$.$.$.$.$.$.$.$.$.$.$.$.$.$.$.$.$.$.$.$.$.$.$.$.$.$.$.$.$.$.$.$.$.$.$.$.$.$.$.$.$.$.$.$.$.$.$.$.$.$.$.",
"$.$.$.$.$.$.$.$.$.$.$.$.$.$.$.$.$.$.$.$.$.$.$.$.$.$.$.$.$.$.$.$.$.$.$.$.$.$.$.$.$.$.$.$.$.$.$.$.$.$.$.$.$.$.$.$.$.$.$.$.$.$.$.$.",
"$.$.$.$.$.$.$.$.$.$.$.$.$.$.$.$.$.$.$.$.$.$.$.$.$.$.$.$.$.$.$.$.$.$.$.$.$.$.$.$.$.$.$.$.$.$.$.$.$.$.$.$.$.$.$.$.$.$.$.$.$.$.$.$.",
"$.$.$.$.$.$.$.$.$.$.$.$.$.$.$.$.$.$.$.$.$.$.$.$.$.$.$.$.$.$.$.$.$.$.$.$.$.$.$.$.$.$.$.$.$.$.$.$.$.$.$.$.$.$.$.$.$.$.$.$.$.$.$.$.",
"$.$.$.$.$.$.$.$.$.$.$.$.$.$.$.$.$.$.$.$.$.$.$.$.$.$.$.$.$.$.$.$.$.$.$.$.$.$.$.$.$.$.$.$.$.$.$.$.$.$.$.$.$.$.$.$.$.$.$.$.$.$.$.$.",
"$.$.$.$.$.$.$.$.$.$.$.$.$.$.$.$.$.$.$.$.$.$.$.$.$.$.$.$.$.$.$.$.$.$.$.$.$.$.$.$.$.$.$.$.$.$.$.$.$.$.$.$.$.$.$.$.$.$.$.$.$.$.$.$.",
"$.$.$.$.$.$.$.$.$.$.$.$.$.$.$.$.$.$.$.$.$.$.$.$.$.$.$.$.$.$.$.$.$.$.$.$.$.$.$.$.$.$.$.$.$.$.$.$.$.$.$.$.$.$.$.$.$.$.$.$.$.$.$.$.",
"$.$.$.$.$.$.$.$.$.$.$.$.$.$.$.$.$.$.$.$.$.$.$.$.$.$.$.$.$.$.$.$.$.$.$.$.$.$.$.$.$.$.$.$.$.$.$.$.$.$.$.$.$.$.$.$.$.$.$.$.$.$.$.$.",
"$.$.$.$.$.$.$.$.$.$.$.$.$.$.$.$.$.$.$.$.$.$.$.$.$.$.$.$.$.$.$.$.$.$.$.$.$.$.$.$.$.$.$.$.$.$.$.$.$.$.$.$.$.$.$.$.$.$.$.$.$.$.$.$.",
"$.$.$.$.$.$.$.$.$.$.$.$.$.$.$.$.$.$.$.$.$.$.$.$.$.$.$.$.$.$.$.$.$.$.$.$.$.$.$.$.$.$.$.$.$.$.$.$.$.$.$.$.$.$.$.$.$.$.$.$.$.$.$.$.",
"$.$.$.$.$.$.$.$.$.$.$.$.$.$.$.$.b b b b b n N C A A A A A A A A A A A A A A A A A A A A A A A $.$.$.$.$.$.$.$.$.$.$.$.$.$.$.$.$.",
"$.$.$.$.$.$.$.$.$.$.$.$.$.$.$.b b b b b b C A A A A A A A A A A A A A A A A A A A A A A A A A A $.$.$.$.$.$.$.$.$.$.$.$.$.$.$.$.",
"$.$.$.$.$.$.$.$.$.$.$.$.$.$.$.b b b b b V A A Z Q P T T T T T T T T T T T T T T T T T T T Q Z A A $.$.$.$.$.$.$.$.$.$.$.$.$.$.$.",
"$.$.$.$.$.$.$.$.$.$.$.$.$.$.b b b b b b A A A I | } } } } | } } } } } } | } } } } } } } } } Y Z A $.$.$.$.$.$.$.$.$.$.$.$.$.$.$.",
"$.$.$.$.$.$.$.$.$.$.$.$.$.$.b b b b b b A A Z ..| | | | +.| +.+.+.+.+.+.+.+.+.+.+.+.+.+.+.+. .~ A $.$.$.$.$.$.$.$.$.$.$.$.$.$.$.",
"$.$.$.$.$.$.$.$.$.$.$.$.$.$.b b b b b b A A Z X.#.#.#.#.#.#.#.#.#.#.#.#.#.#.#.#.#.#.#.#.#.#.o.~ A $.$.$.$.$.$.$.$.$.$.$.$.$.$.$.",
"$.$.$.$.$.$.$.$.$.$.$.$.$.$.b b b b b b A A A X.#.#.#.#.{ } #.#.#.#.#.#.#.#.#.#.} } #.#.#.#.O.~ A $.$.$.$.$.$.$.$.$.$.$.$.$.$.$.",
"$.$.$.$.$.$.$.$.$.$.$.$.$.$.b b b b b b A A Z X.#.#.{ * # + { #.#.#.#.#.#.#.#.#.@ @ * } #.#.O.~ A $.$.$.$.$.$.$.$.$.$.$.$.$.$.$.",
"$.$.$.$.$.$.$.$.$.$.$.$.$.$.b b b b b b C A Z X.#.#.j * h - } #.#.#.#.#.#.#.#.#.; ; = h #.#.#.~ A $.$.$.$.$.$.$.$.$.$.$.$.$.$.$.",
"$.$.$.$.$.$.$.$.$.$.$.$.$.$.b b b b b b A A Z X.#.#.| #.#.#.#.#.#.#.#.#.#.#.#.#.#.#.#.@.#.#.X.Z A $.$.$.$.$.$.$.$.$.$.$.$.$.$.$.",
"$.$.$.$.$.$.$.$.$.$.$.$.$.$.b b b b b b A A Z X.#.#.#.j   . ` #.#.#.#.#.#.#.#.+.h @ % } #.#.X.Z A $.$.$.$.$.$.$.$.$.$.$.$.$.$.$.",
"$.$.$.$.$.$.$.$.$.$.$.$.$.$.b b b b b b A A Z X.#.#.{ +     # | #.#.#.#.#.#.#./     . k #.#.#.~ A $.$.$.$.$.$.$.$.$.$.$.$.$.$.$.",
"$.$.$.$.$.$.$.$.$.$.$.$.$.$.b b b b b b A A A X.#.#.+.#     * +.#.#.#.#.#.#.#.} .   . l #.#.O.~ A $.$.$.$.$.$.$.$.$.$.$.$.$.$.$.",
"$.$.$.$.$.$.$.$.$.$.$.$.$.$.b b b b b n A A Z X.#.#.#.' % = { #.#.#.#.#.#.#.#.#.l * k | #.#.O.~ A $.$.$.$.$.$.$.$.$.$.$.$.$.$.$.",
"$.$.$.$.$.$.$.$.$.$.$.$.$.$.b b b b b n A A Z X.#.#.#.#.#.#.#.#.` { #.#.#./ ] #.#.#.#.#.#.#.O.~ A $.$.$.$.$.$.$.$.$.$.$.$.$.$.$.",
"$.$.$.$.$.$.$.$.$.$.$.$.$.$.b b b b b m A A Z X.#.#.#.#.#.#.#.#.% O l ] k X h #.#.#.#.#.#.#.O.~ A $.$.$.$.$.$.$.$.$.$.$.$.$.$.$.",
"$.$.$.$.$.$.$.$.$.$.$.$.$.$.b b b b b b A A Z X.#.#.#.#.#.#.#.#.{ % X X o = +.#.#.#.#.#.#.#.#.Z A $.$.$.$.$.$.$.$.$.$.$.$.$.$.$.",
"$.$.$.$.$.$.$.$.$.$.$.$.$.$.b b b b b b A A Z X.#.#.#.#.#.#.#.#.#.+.` ` ' +.#.#.#.#.#.#.#.#.X.Z A $.$.$.$.$.$.$.$.$.$.$.$.$.$.$.",
"$.$.$.$.$.$.$.$.$.$.$.$.$.$.b b b b b b A A Z U #.#.#.#.#.#.#.#.#.#.#.#.#.#.#.#.#.#.#.#.#.#.X.~ A $.$.$.$.$.$.$.$.$.$.$.$.$.$.$.",
"$.$.$.$.$.$.$.$.$.$.$.$.$.$.b b b b b b A A A #.#.#.#.#.#.#.#.#.#.#.#.#.#.#.#.#.#.#.#.#.#.#.#.~ A $.$.$.$.$.$.$.$.$.$.$.$.$.$.$.",
"$.$.$.$.$.$.$.$.$.$.$.$.$.$.b b b b b n A A A R #.#.#.#.#.#.#.#.#.#.#.#.#.#.#.#.#.#.#.#.#.#.U A A N $.$.$.$.$.$.$.$.$.$.$.$.$.$.",
"$.$.$.$.$.$.$.$.$.$.$.$.$.$.b b b b b b A A A Z ^ ^ ^ ^ ^ ^ ^ ^ ^ ^ ^ ^ ^ ^ ^ ^ ^ ^ ^ ^ ^ ^ C A A m $.$.$.$.$.$.$.$.$.$.$.$.$.$.",
"$.$.$.$.$.$.$.$.$.$.$.$.$.$.n b b b b n A A A A A A A A A A A A A A A A A A A A A A A A A A A A A m $.$.$.$.$.$.$.$.$.$.$.$.$.$.",
"$.$.$.$.$.$.$.$.$.$.$.$.$.m m n n b b b A A A A A A A A A A A A A A A A A A A A A A A A A A A A A N m $.$.$.$.$.$.$.$.$.$.$.$.$.",
"$.$.$.$.$.$.$.$.$.$.$.$.$.m n m n b b b A A A A A A v 4 4 4 Z A A A A A ! ( > 4 > ) Z A A A A A A N M $.$.$.$.$.$.$.$.$.$.$.$.$.",
"$.$.$.$.$.$.$.$.$.$.$.$.$.N m m n b b n A A A A A A c 4 4 4 V A A A A A x 1 8 8 5 1 H A A A A A A N M $.$.$.$.$.$.$.$.$.$.$.$.$.",
"$.$.$.$.$.$.$.$.$.$.$.$.$.N N N n b b b A A A A ! ! H 4 4 4 H S J V A A > s q q q r p E Z A A A A C N $.$.$.$.$.$.$.$.$.$.$.$.$.",
"$.$.$.$.$.$.$.$.$.$.$.$.C N N N n b b n A A A E a p 3 4 4 4 > 4 4 J A A 4 6 q q q f 4 < t x A A A C N N $.$.$.$.$.$.$.$.$.$.$.$.",
"$.$.$.$.$.$.$.$.$.$.$.$.C C N N m b b n A A A J 4 4 4 4 4 4 4 4 4 v A A y w 0 q 7 i d 9 5 1 G A A C C C $.$.$.$.$.$.$.$.$.$.$.$.",
"$.$.$.$.$.$.$.$.$.$.$.$.C C C C m b b b A A A F 4 4 4 4 4 4 4 4 4 x A A F < w w , i q q q s p W A C C C $.$.$.$.$.$.$.$.$.$.$.$.",
"$.$.$.$.$.$.$.$.$.$.$.$.C A A C N b b n A A A W a t t 4 4 4 y J K V A A A V v z > s q q q 6 < E A A C C $.$.$.$.$.$.$.$.$.$.$.$.",
"$.$.$.$.$.$.$.$.$.$.$.A A A A A A b b n A A A A ! V W < 4 4 ( A A A A A A A A A u i q q 0 e a ! A A A A A $.$.$.$.$.$.$.$.$.$.$.",
"$.$.$.$.$.$.$.$.$.$.$.A A A A A A C b b A A A A A A ! a 4 4 y A A A A A A A A A K p 1 e 2 3 D A A A A A A A $.$.$.$.$.$.$.$.$.$.",
"$.$.$.$.$.$.$.$.$.$.A A A A A A A A n b A A A A A A Z H x x D A A A A A A A A A A W g u ( F A A A A A A A A $.$.$.$.$.$.$.$.$.$.",
"$.$.$.$.$.$.$.$.$.$.A A A A A A A A m b N A A A A A A A A A A A A A A A A A A A A A A A A A A A A A A A A A $.$.$.$.$.$.$.$.$.$.",
"$.$.$.$.$.$.$.$.$.$.A A A A A A A A n b n C A A A A A A A A A A A A A A A A A A A A A A A A A A A A A A A A $.$.$.$.$.$.$.$.$.$.",
"$.$.$.$.$.$.$.$.$.$.$.A A A A A A A n b b b N A A A A A A A A A A A A A A A A A A A A A A A A A A A A A A $.$.$.$.$.$.$.$.$.$.$.",
"$.$.$.$.$.$.$.$.$.$.$.A A A A A A $.$.$.$.$.$.n m V A $.$.$.$.$.$.$.$.$.A A M n $.$.$.$.$.$.$.A A A A A A $.$.$.$.$.$.$.$.$.$.$.",
"$.$.$.$.$.$.$.$.$.$.$.$.$.A A A $.$.$.$.$.$.$.n n n n $.$.$.$.$.$.$.$.$.C m b b m $.$.$.$.$.$.$.$.A A $.$.$.$.$.$.$.$.$.$.$.$.$.",
"$.$.$.$.$.$.$.$.$.$.$.$.$.$.$.$.$.$.$.$.$.A A A C A C $.$.$.$.$.$.$.$.$.V b N C A A A A $.$.$.$.$.$.$.$.$.$.$.$.$.$.$.$.$.$.$.$.",
"$.$.$.$.$.$.$.$.$.$.$.$.$.$.$.$.$.$.$.$.A A A A A A A A $.$.$.$.$.$.$.$.M V A A A A A A A $.$.$.$.$.$.$.$.$.$.$.$.$.$.$.$.$.$.$.",
"$.$.$.$.$.$.$.$.$.$.$.$.$.$.$.$.$.$.$.$.A A A A A A A A A $.$.$.$.$.$.$.n A A A A A A A A A $.$.$.$.$.$.$.$.$.$.$.$.$.$.$.$.$.$.",
"$.$.$.$.$.$.$.$.$.$.$.$.$.$.$.$.$.$.$.A A A A A A A A A A $.$.$.$.$.$.$.C A A A A A A A A A $.$.$.$.$.$.$.$.$.$.$.$.$.$.$.$.$.$.",
"$.$.$.$.$.$.$.$.$.$.$.$.$.$.$.$.$.$.$.A A A A A A A A A A $.$.$.$.$.$.$.A A A A A A A A A A A $.$.$.$.$.$.$.$.$.$.$.$.$.$.$.$.$."
};
