/* XPM */
static char *_648831402722[] = {
/* columns rows colors chars-per-pixel */
"64 64 19 1 ",
"  c #FFCB00",
". c #FFCC00",
"X c #FFCF0F",
"o c #FFD21F",
"O c #FFD52F",
"+ c #FFD83F",
"@ c #FFDB4F",
"# c #FFDF5F",
"$ c #FFE26F",
"% c #FFE57F",
"& c #FFE88F",
"* c #FFEB9F",
"= c #FFEFAF",
"- c #FFF2BF",
"; c #FFF5CF",
": c #FFF8DF",
"> c #FFFBEF",
", c white",
"< c None",
/* pixels */
"<<<<<<<<<<<<<<<<<<<<<<<<<<<<<<<<<<<<<<<<<<<<<<<<<<<<<<<<<<<<<<<<",
"<<<<<<<<<<<<<<<<<<<<   <<<<<<<<<<<<<<<<<<<<<<<<<<<<<<<<<<<<<<<<<",
"<<<<<<<<<<<<<<<<<<     <<<<<<<<<. .............<<<<<<<<<<<<<<<<<",
"<<<<<<<<<<<<<<<<<<     <<<<<<...................<<<<<<<<<<<<<<<<",
"<<<<<<<<<<<<<<<<<      <<<......................<<<<<<<<<<<<<<<<",
"<<<<<<<<<<<<<<<<       <.......................<<<<<<<<<<<<<<<<<",
"<<<<<<<<<<<<<<<       . ......................<<<<<<<<<<<<<<<<<<",
"<<<<<<<<<<<<<<      .........................<<<<<<<<<<<<<<<<<<<",
"<<<<<<<<<<<<<<      ....................... .<<<<<<<<<<<<<<<<<<<",
"<<<<<<<<<<<<<    .............................  <<<<<<<<<<<<<<<<",
"<<<<<<<<<<<<    . ..............................  <<<<<<<<<<<<<<",
"<<<<<<<<<<<<   . ................................   <<<<<<<<<<<<",
"<<<<<<<<<<<   ..............O++++++O..............    <<<<<<<<<<",
"<<<<<<<<<<<  . .........X#-,,,,,,,,,,-#X...........     <<<<<<<<",
"<<<<<<<<<<  ..........o*>,,,,,,,,,,,,,,>&o..........     <<<<<<<",
"<<<<<<<<<< .........X&,,,,,,,,,,,,,,,,,,,>%X....... .     <<<<<<",
"<<<<<<<<< . .......+:,,,,,,,,,,,,,,,,,,,,,,;o....... .     <<<<<",
"<<....<<< ........#,,,,,,,,,,,,,,,,,,,,,,,,,>O.........      <<<",
"<......<  .......O,,,,,,,,,,,,,,,,,,,,,,,,,,,:X....... .      <<",
"<........ ......O>,,,,,,,,,,,,,,,,,,,,,,,,,,,,;X.......       <<",
"<....... ......X;,,,,,,,,,,,,,,,,,,,,,,,,,,,,,,=.........      <",
"<..............%,,,,,,,,,,,,,,,,,,,,,,,,,,,,,,,,#.........      ",
"<.............o,,,,,,,,,,,,,,,,,,,,,,,,,,,,,,,,,>X........     <",
"<.............*,,,,,,,,,,,,,,,,,,,,,,,,,,,,,,,,,,*........<<<<<<",
"<............o,,,,,,,,,,,,,,,,,,,,,,,,,,,,,,,,,,,>X........<<<<<",
"< ...........$,,,,,,,,,,,,,,,,,,,,,,,,,,,,,,,,,,,,$........<<<<<",
"<<...........;,,,,,,,,,,,,,,,,,,,,,,,,,,,,,,,,,,,,;........<<<<<",
"<<..........X,,,,,,,,,,,,,,,,,,,,,,,,,,,,,,,,,,,,,,.........<<<<",
"<<..........+,,,,,,,,,,,,,,,,,,,,,,,,,,,,,,,,,,,,,,+........<<<<",
"<<..........$,,,,,,,,,,,,,,,,,,,,,,,,,,,,,,,,,,,,,,#.........<<<",
"<< .........%,,,,,,,,,,,,,,,,,,,,,,,,,,,,,,,,,,,,,,%.........<<<",
"<<..........%,,,,,,,,,,,,,,,,,,,,,,,,,,,,,,,,,,,,,,%.........<<<",
"<<<.........%,,,,,,,,,,,,,,,,,,,,,,,,,,,,,,,,,,,,,,%......... <<",
"<<<.........%,,,,,,,,,,,,,,,,,,,,,,,,,,,,,,,,,,,,,,%......... <<",
"<<< ........#,,,,,,,,,,,,,,,,,,,,,,,,,,,,,,,,,,,,,,#..........<<",
"<<<<........+,,,,,,,,,,,,,,,,,,,,,,,,,,,,,,,,,,,,,,+..........<<",
"<<<<........X,,,,,,,,,,,,,,,,,,,,,,,,,,,,,,,,,,,,,,X..........<<",
"<<<<.........;,,,,,,,,,,,,,,,,,,,,,,,,,,,,,,,,,,,,;...........<<",
"<<<<<........&,,,,,,,,,,,,,,,,,,,,,,,,,,,,,,,,,,,,&........... <",
"<<<<<........O,,,,,,,,,,,,,,,,,,,,,,,,,,,,,,,,,,,,o............<",
"<<<<<<........-,,,,,,,,,,,,,,,,,,,,,,,,,,,,,,,,,,=.............<",
"<      .......+,,,,,,,,,,,,,,,,,,,,,,,,,,,,,,,,,,+.............<",
"      . .......-,,,,,,,,,,,,,,,,,,,,,,,,,,,,,,,,&..............<",
"<       .......X>,,,,,,,,,,,,,,,,,,,,,,,,,,,,,,;X..............<",
"<       ........+,,,,,,,,,,,,,,,,,,,,,,,,,,,,,>O........ ......<",
"<<      .........#,,,,,,,,,,,,,,,,,,,,,,,,,,,>O........ < .....<",
"<<<<     .........O>,,,,,,,,,,,,,,,,,,,,,,,,;X....... .<<< ...<<",
"<<<<<     .........O>,,,,,,,,,,,,,,,,,,,,,,;X......... <<<<<..<<",
"<<<<<<     .........o=,,,,,,,,,,,,,,,,,,,,*X......... <<<<<<<<<<",
"<<<<<<<      .........@>,,,,,,,,,,,,,,,,;@.........   <<<<<<<<<<",
"<<<<<<<<      ..........#;,,,,,,,,,,,,;#..........   <<<<<<<<<<<",
"<<<<<<<<<<    ............o#*------*#o...........    <<<<<<<<<<<",
"<<<<<<<<<<<<   . ...............................    <<<<<<<<<<<<",
"<<<<<<<<<<<<<   . ............................ .    <<<<<<<<<<<<",
"<<<<<<<<<<<<<<<<  .............................    <<<<<<<<<<<<<",
"<<<<<<<<<<<<<<<<<< . .........................     <<<<<<<<<<<<<",
"<<<<<<<<<<<<<<<<<<<.......................        <<<<<<<<<<<<<<",
"<<<<<<<<<<<<<<<<<<.........................      <<<<<<<<<<<<<<<",
"<<<<<<<<<<<<<<<<< ..................... .       <<<<<<<<<<<<<<<<",
"<<<<<<<<<<<<<<<<<.................... <<<      <<<<<<<<<<<<<<<<<",
"<<<<<<<<<<<<<<<<...................<<<<<<      <<<<<<<<<<<<<<<<<",
"<<<<<<<<<<<<<<<<................<<<<<<<<<    <<<<<<<<<<<<<<<<<<<",
"<<<<<<<<<<<<<<<<<<.........<<<<<<<<<<<<<<   <<<<<<<<<<<<<<<<<<<<",
"<<<<<<<<<<<<<<<<<<<<<<<<<<<<<<<<<<<<<<<<<< <<<<<<<<<<<<<<<<<<<<<"
};
