/* XPM */
static char *_648831408065[] = {
/* columns rows colors chars-per-pixel */
"64 64 21 1 ",
"  c #FECB00",
". c #FFCB00",
"X c #FECC00",
"o c #FFCC00",
"O c #FFCF0F",
"+ c #FFD21F",
"@ c #FFD52F",
"# c #FFD83F",
"$ c #FFDB4F",
"% c #FFDF5F",
"& c #FFE26F",
"* c #FFE57F",
"= c #FFE88F",
"- c #FFEB9F",
"; c #FFEFAF",
": c #FFF2BF",
"> c #FFF5CF",
", c #FFF8DF",
"< c #FFFBEF",
"1 c white",
"2 c None",
/* pixels */
"2222222222222222222222222222222222222222222222222222222222222222",
"22222222222222222222222222222222222222222...22222222222222222222",
"22222222222222222XXXXXXXXXXXXX..222222222.....222222222222222222",
"2222222222222222.XXXXXXXXXXXXXXXXXX222222.....222222222222222222",
"2222222222222222.XXXXXXXXXXXXXXXXXXXX.222......22222222222222222",
"22222222222222222.XXXXXXXXXXXXXXXXXXXXXX2.......2222222222222222",
"222222222222222222.XXXXXXXXXXXXXXXXXXXXX.X.......222222222222222",
"2222222222222222222.XXXXXXXXXXXXXXXXXXXXXX.X......22222222222222",
"2222222222222222222X.XXXXXXXXXXXXXXXXXXXXXXX......22222222222222",
"2222222222222222....XXXXXXXXXXXXXXXXXXXXXXXXX......2222222222222",
"22222222222222....XXXXXXXXXXXXXXXXXXXXXXXXXXXX.X....222222222222",
"222222222222...X.XXXXXXXXXXXXXXXXXXXXXXXXXXXXXX.....222222222222",
"2222222222.....XXXXXXXXXXXXX@######@XXXXXXXXXXXXX....22222222222",
"22222222......XXXXXXXXXXO%:1111111111:%OXXXXXXXXX....22222222222",
"2222222.....XXXXXXXXXX+=<11111111111111<-+XXXXXXXXX...2222222222",
"222222.....X.XXXXXXXO*<1111111111111111111=OXXXXXXXXX.2222222222",
"22222.....X.XXXXXXX+>1111111111111111111111,#XXXXXXX...222222222",
"222........XXXXXXX@<1111111111111111111111111%XXXXXXX..222XXXX22",
"22........XXXXXXXO,111111111111111111111111111@XXXXXXX..2.XXXX.2",
"22.......XXXXXXXO>1111111111111111111111111111<@XXXXXX.X.XXXXXX2",
"2.......XXXXXXXX;111111111111111111111111111111>OXXXXXX.XXXXXXX2",
"........XXXXXXX%11111111111111111111111111111111*XXXXXXXXXXXXXX2",
"2.....XXXXXXXXO<111111111111111111111111111111111+XXXXXXXXXXXXX2",
"222222XXXXXXXX-1111111111111111111111111111111111-XXXXXXXXXXXXX2",
"22222.XXXXXXXO<11111111111111111111111111111111111+XXXXXXXXXXXX2",
"22222XXXXXXXX&111111111111111111111111111111111111&XXXXXXXXXXX.2",
"22222XXXXXXXX>111111111111111111111111111111111111>XXXXXXXXXXX22",
"2222.XXXXXXXX11111111111111111111111111111111111111OXXXXXXXXXX22",
"2222XXXXXXXX#11111111111111111111111111111111111111#XXXXXXXXXX22",
"222.XXXXXXXX%11111111111111111111111111111111111111&XXXXXXXXXX22",
"222XXXXXXXXX*11111111111111111111111111111111111111*XXXXXXXXX.22",
"222XXXXXXXXX*11111111111111111111111111111111111111*XXXXXXXXX.22",
"22.XXXXXXXXX*11111111111111111111111111111111111111*XXXXXXXXX222",
"22.XXXXXXXXX*11111111111111111111111111111111111111*XXXXXXXXX222",
"22XXXXXXXXXX%11111111111111111111111111111111111111%XXXXXXXX.222",
"22XXXXXXXXXX#11111111111111111111111111111111111111#XXXXXXXX2222",
"22XXXXXXXXXXO11111111111111111111111111111111111111OXXXXXXXX2222",
"22XXXXXXXXXXX>111111111111111111111111111111111111>XXXXXXXX.2222",
"2.XXXXXXXXXXX=111111111111111111111111111111111111=XXXXXXXX22222",
"2XXXXXXXXXXXX+111111111111111111111111111111111111@XXXXXXX.22222",
"2XXXXXXXXXXXXX;1111111111111111111111111111111111:XXXXXXXX222222",
"2XXXXXXXXXXXXX#1111111111111111111111111111111111#XXXXXXX......2",
"2XXXXXXXXXXXXXX=11111111111111111111111111111111:XXXXXXX........",
"2XXXXXXXXXXXXXXO>111111111111111111111111111111<OXXXXXXX.......2",
"2XXXXXX.XXXXXXXX@<11111111111111111111111111111#XXXXXXX........2",
"2.XXXX.2.XXXXXXXX@<111111111111111111111111111%XXXXXXX........22",
"22XXX.222..XXXXXXXO>111111111111111111111111<@XXXXXXXXX.....2222",
"22.X22222.XXXXXXXXXO>1111111111111111111111<@XXXXXXXX......22222",
"2222222222..XXXXXXXXO-11111111111111111111;+XXXXXXXX......222222",
"2222222222...XXXXXXXXX$>1111111111111111<$XXXXXXXXX......2222222",
"22222222222...XXXXXXXXXX%>111111111111>%XXXXXXXXXX......22222222",
"22222222222....XXXXXXXXXXX+%-::::::-%+XXXXXXXXXXXX....2222222222",
"222222222222....XXXXXXXXXXXXXXXXXXXXXXXXXXXXXXX.....222222222222",
"222222222222......XXXXXXXXXXXXXXXXXXXXXXXXXXXX.....2222222222222",
"2222222222222......XXXXXXXXXXXXXXXXXXXXXXXXXX...2222222222222222",
"2222222222222.......XXXXXXXXXXXXXXXXXXXXXXX...222222222222222222",
"22222222222222........XXXXXXXXXXXXXXXXXXXXXX.2222222222222222222",
"222222222222222........XXXXXXXXXXXXXXXXXXXXXX.222222222222222222",
"2222222222222222..........XXXXXXXXXXXXXXXXXXXX.22222222222222222",
"22222222222222222......222.XXXXXXXXXXXXXXXXXXXX22222222222222222",
"22222222222222222......222222.XXXXXXXXXXXXXXXXXX2222222222222222",
"2222222222222222222....222222222XXXXXXXXXXXXXXX.2222222222222222",
"22222222222222222222...22222222222222.XXXXXXX.222222222222222222",
"222222222222222222222.222222222222222222222222222222222222222222"
};
